<mxfile host="app.diagrams.net" modified="2023-09-07T06:55:44.492Z" agent="Mozilla/5.0 (X11; Linux x86_64) AppleWebKit/537.36 (KHTML, like Gecko) Chrome/116.0.0.0 Safari/537.36" version="21.6.6" etag="8thzJZEH0PS2fZnO5YEq" type="github">
  <diagram name="Page-1" id="iCtVCFBYsB1jcrSPB4v_">
    <mxGraphModel>
      <root>
        <mxCell id="0" />
        <mxCell id="1" parent="0" />
      </root>
    </mxGraphModel>
  </diagram>
</mxfile>
